# xmcd
#
# Track frame offsets:
#	150
#	13807
#	24733
#	37013
#	49552
#	60898
#	73913
#	85244
#	96670
#	109422
#	121573
#	134789
#	147567
#	160219
#	168912
#	179320
#	189989
#	200344
#	212362
#	224099
#	233604
#	244561
#	255749
#	269287
#	280901
#	291580
#	303918
#	314960
#	325074
#	336503
#
# Disc length: 4611 seconds
#
# Revision: 1446260570
# Processed by: cddbd v1.5.2PL0 Copyright (c) Steve Scherf et al.
# Submitted via: EZCDAudioConverter 2.1.5.1
#
DISCID=d412011e
DTITLE=Jerry Byrd - Byrd's Expedition
DYEAR=2017
DGENRE=Country
TTITLE0=Steelin' The Blues
TTITLE1=Maui Chimes
TTITLE2=Byrd's Boogie
TTITLE3=Wabash Blues
TTITLE4=Steelin' The Chimes
TTITLE5=Steel Guitar Rag
TTITLE6=Hilo March
TTITLE7=Panhandle Rag
TTITLE8=St. Louis Blues
TTITLE9=Three-String Swing
TTITLE10=South
TTITLE11=Twilight Blues
TTITLE12=South Sea Moon
TTITLE13=Blues Boogie
TTITLE14=Coconut Groove
TTITLE15=Kewalo Chimes
TTITLE16=Limehouse Blues
TTITLE17=Gold Coast Blues
TTITLE18=This 'n' That
TTITLE19=Kohalo March
TTITLE20=Jitterbug Waltz
TTITLE21=Byrd's Expedition
TTITLE22=Paradise Isle
TTITLE23=Wang Wang Blues
TTITLE24=Hula Blues
TTITLE25=Georgia Steel Guitar
TTITLE26=Honolulu March
TTITLE27=Turner's Turnpike
TTITLE28=Hawaiian Sunset
TTITLE29=Texas Playboy Rag
EXTD=
EXTT0=
EXTT1=
EXTT2=
EXTT3=
EXTT4=
EXTT5=
EXTT6=
EXTT7=
EXTT8=
EXTT9=
EXTT10=
EXTT11=
EXTT12=
EXTT13=
EXTT14=
EXTT15=
EXTT16=
EXTT17=
EXTT18=
EXTT19=
EXTT20=
EXTT21=
EXTT22=
EXTT23=
EXTT24=
EXTT25=
EXTT26=
EXTT27=
EXTT28=
EXTT29=
PLAYORDER=
